<?xml version="1.0" standalone="no"?>
<!DOCTYPE svg PUBLIC "-//W3C//DTD SVG 20010904//EN"
 "http://www.w3.org/TR/2001/REC-SVG-20010904/DTD/svg10.dtd">
<svg version="1.0" xmlns="http://www.w3.org/2000/svg"
 width="800.000000pt" height="1280.000000pt" viewBox="0 0 800.000000 1280.000000"
 preserveAspectRatio="xMidYMid meet">
<metadata>
Created by potrace 1.15, written by Peter Selinger 2001-2017
</metadata>
<g transform="translate(0.000000,1280.000000) scale(0.100000,-0.100000)"
fill="#000000" stroke="none">
<path d="M3726 12489 c-48 -11 -168 -101 -233 -174 -119 -133 -225 -420 -263
-710 -26 -192 -90 -485 -119 -544 l-29 -57 9 -124 c7 -88 6 -141 -2 -180 -16
-76 -96 -341 -106 -350 -4 -3 -35 -14 -68 -24 -135 -41 -212 -105 -266 -220
-53 -114 -60 -171 -69 -546 -5 -221 -16 -419 -29 -550 -16 -158 -21 -273 -21
-503 0 -398 14 -457 122 -529 69 -47 127 -58 327 -65 l184 -6 -6 -81 c-6 -85
-29 -165 -95 -331 -47 -121 -46 -115 -83 -333 -34 -204 -40 -453 -14 -527 18
-49 19 -121 4 -337 -25 -347 31 -672 221 -1293 127 -413 207 -757 217 -933 8
-140 -3 -185 -82 -359 -113 -247 -153 -393 -162 -598 -5 -123 -2 -148 46 -445
72 -446 84 -558 79 -731 -3 -131 -5 -151 -24 -176 -81 -110 -123 -324 -124
-632 0 -53 -7 -143 -15 -201 -37 -271 -6 -384 146 -524 120 -111 307 -166 406
-119 49 23 93 115 93 193 0 68 -22 200 -60 350 -67 272 -69 297 -58 920 8 465
26 599 142 1068 52 208 63 284 75 502 9 169 0 133 122 460 l40 105 -5 -200
c-3 -110 -15 -297 -26 -415 -11 -118 -24 -368 -30 -555 -9 -310 -16 -401 -52
-738 -9 -84 -9 -110 0 -119 19 -19 39 -2 115 97 62 82 83 104 97 105 3 0 2
-42 -2 -92 -7 -82 -22 -165 -73 -397 -11 -53 -12 -96 -3 -235 11 -179 8 -228
-38 -521 -24 -152 -16 -279 25 -380 40 -98 50 -110 114 -131 119 -40 255 9
358 129 93 107 103 137 96 272 -4 64 -17 156 -33 220 -14 61 -30 157 -35 215
-5 58 -16 152 -24 210 -8 58 -15 110 -15 115 0 6 52 10 130 10 l131 0 32 -37
c41 -48 82 -57 259 -58 l136 0 7 -29 c7 -33 38 -65 76 -79 14 -6 84 -13 155
-17 71 -4 176 -16 233 -26 133 -24 158 -24 171 0 12 23 -17 114 -112 355 -32
83 -86 219 -119 303 -103 263 -150 497 -199 985 -11 109 -35 293 -54 410 -19
117 -47 301 -61 408 -33 251 -49 340 -90 530 -75 339 -80 515 -31 990 32 312
41 440 66 897 34 632 24 791 -65 1060 -68 204 -159 354 -339 558 l-114 130 25
20 c31 26 23 49 -25 69 -20 8 -29 15 -19 15 29 1 57 38 57 76 0 19 4 35 9 35
6 0 53 -29 106 -65 90 -62 99 -65 154 -65 88 0 115 22 181 154 51 102 55 113
53 175 -1 38 -16 123 -36 201 -32 122 -68 330 -98 560 -6 47 -14 238 -18 425
-7 296 -11 350 -29 417 -30 110 -69 185 -129 244 -47 46 -53 56 -53 94 0 118
-30 228 -120 440 -27 64 -58 151 -70 195 -12 44 -30 104 -41 133 -38 104 -51
218 -58 517 -7 257 -11 298 -30 360 -12 39 -26 78 -32 88 -5 10 -21 57 -35
103 -42 146 -120 294 -147 277 -5 -3 -7 -1 -4 4 10 16 -67 81 -127 109 -70 32
-148 47 -220 42 -38 -3 -73 0 -93 9 -36 15 -128 16 -187 2z m-223 -189 c-20
-34 -69 -94 -57 -70 10 21 67 100 71 100 2 0 -4 -14 -14 -30z m-433 -3872 c0
-9 -61 -11 -82 -3 -12 5 -11 18 5 83 10 42 21 84 24 92 4 12 52 -143 53 -172z"/>
</g>
</svg>
